<?xml version="1.0" standalone="no"?>
<!DOCTYPE svg PUBLIC "-//W3C//DTD SVG 20010904//EN"
 "http://www.w3.org/TR/2001/REC-SVG-20010904/DTD/svg10.dtd">
<svg version="1.0" xmlns="http://www.w3.org/2000/svg"
 width="512.000000pt" height="194.000000pt" viewBox="0 0 512.000000 194.000000"
 preserveAspectRatio="xMidYMid meet">

<g transform="translate(0.000000,194.000000) scale(0.100000,-0.100000)"
fill="#000000" stroke="none">
<path d="M3850 1035 c0 -558 3 -697 13 -701 7 -2 86 -3 176 -2 l162 3 -56 63
c-55 60 -58 62 -106 62 l-49 0 0 577 0 578 -62 57 c-33 32 -65 58 -70 58 -4 0
-8 -313 -8 -695z"/>
<path d="M1326 1568 l-96 -132 0 -610 0 -611 60 62 60 61 0 291 0 291 80 0 80
0 0 -292 0 -292 50 49 50 49 0 503 0 503 -91 127 c-51 71 -93 129 -94 131 -1
1 -46 -57 -99 -130z m147 -130 l37 -52 0 -173 0 -173 -80 0 -80 0 0 176 0 176
36 49 c20 27 39 49 42 49 4 0 24 -24 45 -52z"/>
<path d="M4232 998 l3 -663 173 -3 c94 -1 172 0 172 3 0 4 -24 33 -52 66 -52
58 -53 59 -105 59 l-53 0 0 550 0 549 -62 51 c-35 27 -66 50 -70 50 -5 0 -7
-298 -6 -662z"/>
<path d="M230 975 l0 -645 141 0 140 0 55 51 54 52 0 546 0 547 -48 47 -48 47
-147 0 -147 0 0 -645z m242 488 l28 -27 0 -462 0 -462 -31 -26 c-23 -19 -42
-26 -75 -26 l-44 0 0 515 0 515 47 0 c37 0 53 -6 75 -27z"/>
<path d="M752 978 l3 -643 173 -3 172 -2 0 65 0 65 -110 0 -110 0 0 230 0 230
65 0 65 0 0 60 0 60 -65 0 -65 0 0 225 0 224 112 3 112 3 49 63 49 62 -226 0
-226 0 2 -642z"/>
<path d="M1740 975 l0 -645 144 0 143 0 52 54 51 55 0 538 0 538 -46 53 -46
52 -149 0 -149 0 0 -645z m249 480 l31 -36 0 -445 0 -446 -34 -34 c-29 -29
-41 -34 -80 -34 l-46 0 0 515 0 515 49 0 c43 0 52 -4 80 -35z"/>
<path d="M2982 978 l3 -643 173 -3 172 -2 0 65 0 65 -115 0 -115 0 0 515 0
515 64 0 65 0 45 59 c25 33 46 62 46 65 0 3 -77 6 -170 6 l-170 0 2 -642z"/>
<path d="M3412 978 l3 -643 111 -3 111 -3 58 63 59 63 -107 3 -107 3 0 229 0
230 65 0 65 0 0 60 0 59 -67 3 -68 3 -3 223 -2 222 115 0 115 0 0 65 0 65
-175 0 -175 0 2 -642z"/>
<path d="M4610 1318 l0 -303 90 -78 90 -77 0 -200 0 -200 -90 0 -90 0 0 -65 0
-66 158 3 157 3 3 306 2 306 -90 74 -90 74 0 198 0 197 34 0 c38 0 55 13 110
83 l37 47 -160 0 -161 0 0 -302z"/>
<path d="M2423 1400 c-98 -49 -153 -143 -153 -259 0 -70 12 -85 69 -95 80 -12
160 -118 147 -191 -7 -38 -20 -51 -59 -60 -23 -6 -27 -12 -27 -42 0 -64 22
-116 71 -165 154 -154 391 -32 365 189 -10 86 -47 143 -136 213 -43 33 -83 72
-89 89 -12 26 -16 28 -52 24 -50 -7 -85 15 -110 70 -34 77 -21 150 41 220 28
32 30 37 13 37 -11 0 -47 -14 -80 -30z m226 -524 c13 -68 30 -92 74 -102 l31
-7 -44 -16 c-36 -13 -47 -23 -57 -51 -7 -19 -12 -48 -12 -64 -1 -43 -11 -26
-25 41 -11 58 -11 58 -61 75 l-50 16 42 11 c52 14 62 27 76 100 6 33 12 59 13
58 1 -1 7 -29 13 -61z"/>
<path d="M2691 1155 c-15 -56 -14 -75 9 -112 36 -59 103 -70 116 -18 9 36 -1
54 -39 70 -39 16 -51 29 -64 70 l-10 30 -12 -40z"/>
</g>
</svg>
